<svg xmlns="http://www.w3.org/2000/svg" width="207" height="104" fill="none" viewBox="0 0 207 104"><g clip-path="url(#clip0_187_468)"><path fill="#000" d="M147.273 53.84c-1.987.458-7.235.712-7.235.712l-.645 2.072s2.598-.22 4.5-.034c0 0 .612-.05.68.68.034.747-.051 1.528-.051 1.528s-.051.459-.68.578c-.73.118-5.655.34-5.655.34l-.798 2.682s-.289.612.374.442c.611-.17 5.774-1.155 6.453-1.019.713.17 1.528 1.155 1.291 2.038-.272 1.07-5.435 4.364-8.559 4.143 0 0-1.648.102-3.023-2.122-1.325-2.123.458-6.114.458-6.114s-.798-1.868-.204-2.547c0 0 .34-.289 1.359-.374l1.274-2.615s-1.444.085-2.293-.968c-.781-1.02-.849-1.46-.238-1.732.646-.34 6.623-1.41 10.733-1.274 0 0 1.444-.17 2.717 2.327 0 0 .578 1.019-.441 1.256m-15.505 10.054c-.51 1.24-1.919 2.547-3.617 1.749-1.733-.815-4.467-6.385-4.467-6.385s-1.019-2.072-1.222-2.004c0 0-.221-.408-.34 1.868-.17 2.258.034 6.657-.9 7.353-.849.68-1.868.39-2.446-.407-.475-.799-.679-2.718-.407-6.063.306-3.346 1.07-6.912 2.038-8.016 1.019-1.12 1.834-.306 2.139 0 0 0 1.308 1.189 3.516 4.704l.373.646s2.004 3.345 2.208 3.328c0 0 .17.17.306.034.204-.05.136-1.138.136-1.138s-.374-3.617-2.242-9.73c0 0-.272-.782-.085-1.529.17-.68.9-.34.9-.34s2.819 1.359 4.195 5.944c1.358 4.585.441 8.746-.068 9.986m-13.841-11.769c-.271.475-.39 1.138-1.562 1.325 0 0-11.378.798-11.939 1.596 0 0-.373.475.238.594.645.136 3.227.476 4.449.544 1.325 0 5.774.034 7.405 2.038 0 0 .934.95.9 3.108-.034 2.207-.425 2.988-1.291 3.786-.9.748-8.61 4.212-13.586-1.086 0 0-2.275-2.548.798-4.484 0 0 2.208-1.358 7.863.221 0 0 1.698.611 1.631 1.24-.102.68-1.41 1.358-3.312 1.324-1.834-.05-3.193-.934-2.921-.78.255.084-1.987-1.088-2.683-.29-.68.748-.51 1.19.17 1.648 1.698.985 8.372.628 10.359-1.596 0 0 .798-.9-.408-1.63-1.188-.68-4.653-1.105-5.994-1.156-1.274-.068-6.046 0-6.759-1.24 0 0-.68-.882.067-3.294.782-2.547 6.335-3.532 8.746-3.736 0 0 6.624-.272 7.863 1.087 0 0 .17.305-.034.764M99.179 67.052c-.798.594-2.497.34-2.99-.34-.475-.594-.644-2.938-.56-6.623.12-3.77.17-8.39 1.02-9.137.849-.73 1.358-.085 1.698.408.34.51.78 1.07.849 2.242.102 1.188.39 7.302.39 7.302s.374 5.57-.39 6.148m1.681-19.87c-2.344.798-3.94.544-5.298-.05-.595 1.07-.951 1.392-1.393 1.46-.68.068-1.274-1.02-1.359-1.359-.135-.255-.458-.713-.068-1.75-1.324-1.188-1.426-2.784-1.188-3.854.305-1.257 2.547-5.978 9.34-6.538 0 0 3.328-.238 3.906 1.528h.102s3.226 0 3.159 2.887c0 2.887-3.567 6.487-7.201 7.727m3.023-8.27c-2.14.34-5.434 3.192-7.014 5.553 2.429.441 6.674.272 8.576-3.566 0 0 .9-2.412-1.562-1.987m-9.391 1.868c-.68 1.104-.714 1.766-.391 2.207.798-1.188 2.208-3.056 4.33-4.517-1.63.17-3.005.85-3.94 2.31m57.859 26.102c-1.563 3.838-2.887 7.727-3.652 13.552 0 0-.169 1.137-1.103.764-.934-.34-2.463-1.868-2.803-4.025-.339-2.82.917-7.574 3.482-13.043-.747-1.188-1.274-2.954-.849-5.434 0 0 .679-4.585 5.264-8.729 0 0 .544-.458.849-.306.374.17.221 1.63-.085 2.378-.271.713-2.309 4.246-2.309 4.246s-1.274 2.411-.917 4.296c2.411-3.702 7.897-11.208 11.293-8.83 2.157 1.528 2.157 6.453.544 9.306-1.274 2.258-4.874 6.929-9.68 5.842m7.064-11.548c-1.256 1.358-3.498 3.94-5.264 7.438 1.868-.204 3.685-1.24 4.245-1.766.9-.798 2.972-2.955 2.65-5.808 0 0-.204-1.495-1.631.136m-76.08 13.535c-6.013 1.834-11.685.985-14.776.17-.085 1.256-.22 1.783-.424 1.986-.238.272-2.208 1.393-3.295-.203-.475-.765-.713-2.14-.849-3.397-6.963-3.159-10.19-7.812-10.291-7.982-.17-.17-1.75-1.817-.17-3.855 1.477-1.834 6.368-3.685 10.75-4.415.17-3.736.577-6.623 1.104-7.897.628-1.528 1.426-.17 2.14.85.577.763.933 4.041.968 6.656 2.852-.136 4.585.068 7.76.68 4.178.713 6.963 2.853 6.743 5.264-.204 2.378-2.378 3.363-3.227 3.43-.85.069-2.208-.56-2.208-.56-.95-.441-.085-.849 1.019-1.324 1.223-.595.951-1.19.951-1.19-.442-1.358-5.859-2.258-11.242-2.258 0 2.972.119 7.897.204 10.767 3.77.713 6.589.56 6.589.56s13.755-.39 14.146-9.17c.425-8.797-13.756-17.22-24.2-19.87-10.427-2.734-16.337-.798-16.846-.543-.56.272-.051.374-.051.374s.56.085 1.579.424c1.019.34.204.85.204.85-1.783.61-3.77.254-4.16-.561-.392-.798.254-1.529 1.018-2.598.713-1.104 1.528-1.07 1.528-1.07 12.907-4.5 28.667 3.566 28.667 3.566 14.74 7.438 17.254 16.184 16.982 19.58-.238 3.346-1.528 9.001-10.614 11.753m-28.36-12.16c-1.461.68-.442 1.766-.442 1.766 2.751 2.938 6.114 4.79 9.34 5.944.374-5.095.34-6.912.34-9.476-4.993.34-7.88 1.155-9.239 1.766"/></g><defs><clipPath id="clip0_187_468"><path fill="#fff" d="M45 32h118.886v50H45z"/></clipPath></defs></svg>