<svg xmlns="http://www.w3.org/2000/svg" width="142" height="35" fill="none" viewBox="0 0 142 35"><g clip-path="url(#clip0_187_484)"><path fill="#000" d="M26.283 20.72 19.178 9.24h-5.11v16.485h5.11V14.28l7.105 11.48h5.075V9.24h-5.145zm40.32-5.915V13.16h-2.66v-2.24h-4.97v2.24h-2.695v1.645h2.695V25.76h4.97V14.805zM34.158 25.69h4.935V14.77h-4.935zm0-13.055h4.97V9.24h-4.97zM120.783 14c-3.99 0-7.245 2.765-7.245 6.125s3.255 6.125 7.245 6.125 7.245-2.765 7.245-6.125S124.773 14 120.783 14m1.995 8.47c0 1.75-1.015 2.45-1.995 2.45s-2.03-.7-2.03-2.45v-4.62c0-1.75 1.015-2.45 2.03-2.45.98 0 1.995.7 1.995 2.45zm-15.715-7.175c-.805-.455-1.645-.875-2.8-.98-3.535-.315-6.3 2.835-6.3 5.74 0 3.815 2.94 5.215 3.36 5.425 1.68.77 3.815.805 5.67-.385v.63h4.865V9.275h-4.865c.07-.035.07 3.5.07 6.02m.07 4.9v1.96c0 1.68-1.155 2.135-1.96 2.135s-1.96-.455-1.96-2.135v-3.92c0-1.68 1.155-2.135 1.96-2.135.77 0 1.96.455 1.96 2.135zM50.678 14.28c-1.645.035-2.975.77-3.955 1.645V14.77h-4.935v10.955h4.935v-7.21c0-.945 1.015-1.995 2.345-1.995s2.275 1.085 2.275 1.995v7.21h4.935v-5.95c0-4.34-3.745-5.6-5.6-5.495m40.145 0c-1.47.035-2.87.63-3.955 1.645V14.77h-4.935v10.955h4.935v-7.21c0-.945 1.015-1.995 2.345-1.995s2.275 1.085 2.275 1.995v7.21h4.935v-5.95c0-4.34-3.745-5.6-5.6-5.495m-10.325 5.985c0-3.395-3.29-6.23-7.28-6.23-4.025 0-7.28 2.765-7.28 6.125 0 3.395 3.255 6.125 7.28 6.125 3.325 0 6.16-1.925 7-4.48h-4.935v.665c0 1.995-1.33 2.45-2.03 2.45-.77 0-2.1-.455-2.1-2.45v-2.275zm-8.96-3.85c.385-.595 1.015-.98 1.715-.98.665 0 1.33.315 1.715.98.315.525.315 1.19.315 2.135h-4.13c.035-.945.07-1.575.385-2.135m58.415-5.11c0-.525-.385-.805-1.19-.805h-1.12v2.8h.665v-1.155h.35l.525 1.155h.77l-.63-1.26c.42-.105.63-.385.63-.735m-1.26.385h-.35v-.805h.315c.385 0 .63.14.63.385-.035.35-.21.42-.595.42m.035-2.31c-1.365 0-2.52 1.155-2.52 2.52s1.155 2.52 2.52 2.52 2.52-1.155 2.52-2.52-1.12-2.52-2.52-2.52m0 4.585c-1.12 0-2.03-.91-2.03-2.03s.945-2.03 2.03-2.03c1.12 0 2.03.945 2.03 2.03s-.91 2.03-2.03 2.03M123.163 0H18.513C7.418-.035-.002 7.945-.002 17.535-.002 27.09 7.418 35 18.548 35h104.685c11.13 0 18.55-7.91 18.55-17.465C141.713 7.98 134.258 0 123.163 0m-.035 30.73H18.548c-8.82.035-14.21-5.915-14.21-13.195S9.763 4.375 18.548 4.34h104.58c8.785 0 14.21 5.915 14.21 13.195s-5.39 13.195-14.21 13.195"/></g><defs><clipPath id="clip0_187_484"><path fill="#fff" d="M0 0h141.785v35H0z"/></clipPath></defs></svg>