<svg width="435" height="17" viewBox="0 0 435 17" fill="none" xmlns="http://www.w3.org/2000/svg">
<path d="M-0.000828035 10.516V5.764C-0.000828035 1.1 2.61717 2.74181e-06 7.01717 2.74181e-06H14.3652C19.9092 2.74181e-06 20.6792 2.002 20.6792 5.104V5.61H15.8832C15.8832 4.026 14.9812 3.828 13.4192 3.828H8.11717C5.65317 3.828 5.01517 4.422 5.01517 7.15V9.13C5.01517 11.858 5.65317 12.452 8.11717 12.452H13.3312C14.6072 12.452 15.8832 12.254 15.8832 10.714V10.252H9.81117V6.952H20.7672V11.484C20.7672 16.06 18.3912 16.28 12.8912 16.28H7.01717C2.61717 16.28 -0.000828035 15.18 -0.000828035 10.516ZM29.1487 4.136V8.008H37.2227C38.5427 8.008 39.0267 7.48 39.0267 6.336V5.808C39.0267 4.4 38.3227 4.136 36.7827 4.136H29.1487ZM24.2647 16.104V0.176003H39.0047C42.7667 0.176003 43.7787 2.046 43.7787 4.906V5.918C43.7787 8.052 43.2947 9.306 41.0507 9.834V9.878C42.5027 10.142 43.7127 10.78 43.7127 13.398V16.104H38.8287V14.19C38.8287 12.518 38.3447 11.968 36.8267 11.968H29.1487V16.104H24.2647ZM46.0791 16.104L54.7031 0.176003H61.0611L69.8171 16.104H64.3831L62.8651 13.288H52.9651L51.5351 16.104H46.0791ZM57.8711 3.872L54.7911 9.856H61.0391L57.8711 3.872ZM72.1132 16.104V0.176003H85.4232C90.0652 0.176003 91.1872 2.508 91.1872 5.632V6.996C91.1872 9.372 90.1532 12.1 86.6992 12.1H76.9972V16.104H72.1132ZM76.9972 4.136V8.14H84.5872C85.7312 8.14 86.1712 7.392 86.1712 6.446V5.83C86.1712 4.752 85.6432 4.136 84.1692 4.136H76.9972ZM94.3939 16.104V0.176003H99.2779V5.852H109.574V0.176003H114.458V16.104H109.574V10.076H99.2779V16.104H94.3939ZM118.571 16.104V0.176003H123.455V16.104H118.571ZM127.238 10.516V5.764C127.238 1.1 129.856 2.74181e-06 134.256 2.74181e-06H139.998C146.95 2.74181e-06 147.852 1.496 147.808 6.006H142.924V5.566C142.924 4.422 142.088 4.092 140.636 4.092H135.312C132.738 4.092 132.254 5.302 132.254 7.282V8.998C132.254 11.308 132.738 12.188 135.048 12.188H140.262C142.462 12.188 143.122 11.968 143.122 9.988H148.006V11.484C148.006 14.168 147.038 16.28 142.132 16.28H134.256C129.856 16.28 127.238 15.18 127.238 10.516ZM149.942 16.104L158.566 0.176003H164.924L173.68 16.104H168.246L166.728 13.288H156.828L155.398 16.104H149.942ZM161.734 3.872L158.654 9.856H164.902L161.734 3.872ZM175.976 16.104V0.176003H180.86V12.012H191.838V16.104H175.976ZM205.906 16.104V0.176003H219.216C223.858 0.176003 224.98 2.508 224.98 5.632V6.996C224.98 9.372 223.946 12.1 220.492 12.1H210.79V16.104H205.906ZM210.79 4.136V8.14H218.38C219.524 8.14 219.964 7.392 219.964 6.446V5.83C219.964 4.752 219.436 4.136 217.962 4.136H210.79ZM228.187 16.104V0.176003H233.071V12.012H244.049V16.104H228.187ZM245.124 16.104L253.748 0.176003H260.106L268.862 16.104H263.428L261.91 13.288H252.01L250.58 16.104H245.124ZM256.916 3.872L253.836 9.856H260.084L256.916 3.872ZM275.649 16.104V10.56L266.827 0.176003H272.723L278.091 6.688L283.459 0.176003H289.355L280.533 10.56V16.104H275.649ZM291.368 10.516V5.764C291.368 1.1 293.986 2.74181e-06 298.386 2.74181e-06H305.734C311.278 2.74181e-06 312.048 2.002 312.048 5.104V5.61H307.252C307.252 4.026 306.35 3.828 304.788 3.828H299.486C297.022 3.828 296.384 4.422 296.384 7.15V9.13C296.384 11.858 297.022 12.452 299.486 12.452H304.7C305.976 12.452 307.252 12.254 307.252 10.714V10.252H301.18V6.952H312.136V11.484C312.136 16.06 309.76 16.28 304.26 16.28H298.386C293.986 16.28 291.368 15.18 291.368 10.516ZM320.518 4.136V8.008H328.592C329.912 8.008 330.396 7.48 330.396 6.336V5.808C330.396 4.4 329.692 4.136 328.152 4.136H320.518ZM315.634 16.104V0.176003H330.374C334.136 0.176003 335.148 2.046 335.148 4.906V5.918C335.148 8.052 334.664 9.306 332.42 9.834V9.878C333.872 10.142 335.082 10.78 335.082 13.398V16.104H330.198V14.19C330.198 12.518 329.714 11.968 328.196 11.968H320.518V16.104H315.634ZM338.658 10.516V5.764C338.658 1.1 341.276 2.74181e-06 345.676 2.74181e-06H353.508C357.908 2.74181e-06 360.526 1.1 360.526 5.764V10.516C360.526 15.18 357.908 16.28 353.508 16.28H345.676C341.276 16.28 338.658 15.18 338.658 10.516ZM343.674 7.282V8.998C343.674 11.308 344.158 12.188 346.468 12.188H352.716C355.026 12.188 355.51 11.308 355.51 8.998V7.282C355.51 5.302 355.026 4.092 352.452 4.092H346.732C344.158 4.092 343.674 5.302 343.674 7.282ZM364.041 10.428V0.176003H368.925V9.372C368.925 11.396 369.651 12.188 371.653 12.188H376.493C378.495 12.188 379.221 11.396 379.221 9.372V0.176003H384.105V10.428C384.105 14.388 382.059 16.28 377.571 16.28H370.575C366.087 16.28 364.041 14.388 364.041 10.428ZM387.955 16.104V0.176003H395.523L404.697 11.748H404.741V0.176003H409.625V16.104H402.057L392.883 4.532H392.839V16.104H387.955ZM413.655 16.104V0.176003H428.395C433.279 0.176003 434.995 1.782 434.995 5.72V10.56C434.995 14.498 433.279 16.104 428.395 16.104H413.655ZM418.539 4.136V12.012H427.207C429.297 12.012 430.111 11.418 430.111 9.152V6.996C430.111 4.73 429.297 4.136 427.207 4.136H418.539Z" fill="white"/>
</svg>
