<svg width="207" height="104" viewBox="0 0 207 104" fill="none" xmlns="http://www.w3.org/2000/svg">
<g clip-path="url(#clip0_186_268)">
<path d="M147.894 82.4426C147.894 83.3898 147.198 84.0255 146.375 84.0255V84.0198C145.528 84.0255 144.846 83.3898 144.846 82.4429C144.846 81.4962 145.528 80.8623 146.375 80.8623C147.199 80.862 147.894 81.496 147.894 82.4426ZM148.51 82.4426C148.51 81.1428 147.5 80.3883 146.375 80.3883C145.242 80.3883 144.232 81.1428 144.232 82.4426C144.232 83.7417 145.242 84.4993 146.375 84.4993C147.5 84.4993 148.51 83.7417 148.51 82.4426ZM146.021 82.6165H146.249L146.779 83.5465H147.361L146.774 82.5773C147.077 82.5557 147.327 82.4112 147.327 82.0031C147.327 81.496 146.977 81.333 146.385 81.333H145.528V83.5465H146.021V82.6165M146.021 82.2417V81.7087H146.363C146.55 81.7087 146.804 81.7238 146.804 81.9511C146.804 82.1985 146.672 82.2417 146.453 82.2417H146.021ZM134.132 71.1192L136.794 78.4015H131.388L134.132 71.1192ZM131.281 68.2837L125.147 83.8264H129.479L130.449 81.08H137.709L138.627 83.8264H143.329L137.149 68.2817L131.281 68.2837ZM118.966 83.8321H123.36V68.279L118.965 68.2779L118.966 83.8321ZM88.4563 68.2779L84.7897 80.6051L81.2773 68.279L76.5354 68.2779L81.5518 83.8321H87.8831L92.94 68.2779H88.4563ZM106.221 71.6648H108.109C110.85 71.6648 112.622 72.895 112.622 76.0877C112.622 79.2811 110.85 80.5116 108.109 80.5116H106.221V71.6648ZM101.863 68.2779V83.8321H108.988C112.783 83.8321 114.023 83.2012 115.363 81.7856C116.31 80.7917 116.922 78.6105 116.922 76.2261C116.922 74.0391 116.404 72.0898 115.501 70.8751C113.873 68.7027 111.528 68.2779 108.028 68.2779H101.863ZM60.2324 68.2563V83.8321H64.6644V72.0054L68.0984 72.0064C69.2355 72.0064 70.046 72.2897 70.5936 72.8747C71.2881 73.6144 71.5717 74.8085 71.5717 76.9927V83.8321H75.8662V75.2264C75.8662 69.0845 71.9514 68.2563 68.121 68.2563H60.2324ZM94.7897 68.2779L94.7914 83.8321H99.1842V68.2779H94.7897Z" fill="black"/>
<path d="M72.0456 37.3087C72.0456 37.3087 77.698 28.969 88.984 28.1062V25.0806C76.4833 26.0845 65.6582 36.672 65.6582 36.672C65.6582 36.672 71.7894 54.3961 88.984 56.0189V52.8029C76.3657 51.2155 72.0456 37.3087 72.0456 37.3087ZM88.984 46.407V49.3523C79.4474 47.6521 76.8003 37.7387 76.8003 37.7387C76.8003 37.7387 81.3792 32.6663 88.984 31.8437V35.0755C88.9782 35.0755 88.9742 35.0738 88.9694 35.0738C84.978 34.5948 81.8599 38.3235 81.8599 38.3235C81.8599 38.3235 83.6076 44.6005 88.984 46.407ZM88.984 19.5V25.0806C89.3509 25.0524 89.7179 25.0286 90.0869 25.016C104.299 24.537 113.559 36.672 113.559 36.672C113.559 36.672 102.923 49.6044 91.8431 49.6044C90.8276 49.6044 89.8769 49.5102 88.984 49.352V52.8029C89.7475 52.8998 90.5392 52.9569 91.3653 52.9569C101.676 52.9569 109.133 47.691 116.353 41.4586C117.55 42.4173 122.451 44.7497 123.459 45.7708C116.593 51.5184 100.594 56.1515 91.5233 56.1515C90.649 56.1515 89.8093 56.0985 88.984 56.0189V60.8681H128.175V19.5H88.984ZM88.984 31.8437V28.1062C89.3472 28.0808 89.7131 28.0615 90.0869 28.0497C100.307 27.7287 107.011 36.832 107.011 36.832C107.011 36.832 99.7696 46.8897 92.0048 46.8897C90.8874 46.8897 89.8857 46.7102 88.984 46.407V35.0755C92.9625 35.5563 93.763 37.3137 96.155 41.3011L101.475 36.8154C101.475 36.8154 97.5914 31.7224 91.0451 31.7224C90.3335 31.7221 89.6526 31.7721 88.984 31.8437Z" fill="black"/>
</g>
<defs>
<clipPath id="clip0_186_268">
<rect width="88.2775" height="65" fill="white" transform="translate(60.2324 19.5)"/>
</clipPath>
</defs>
</svg>
