<svg width="207" height="104" viewBox="0 0 207 104" fill="none" xmlns="http://www.w3.org/2000/svg">
<g clip-path="url(#clip0_186_274)">
<path d="M123.716 39.5717C124.432 39.3669 125.368 39.8962 125.549 40.6356C125.458 41.2154 124.527 41.6462 124.158 41.0584C123.865 40.6356 123.527 40.101 123.716 39.5717ZM132.251 40.1994C132.934 40.1249 133.902 40.9521 133.466 41.6462C132.607 42.3297 131.932 40.9042 132.251 40.1994ZM125.966 41.6063C127.003 41.1728 128.251 41.5185 129.043 42.2845C130.261 43.4308 130.69 45.1781 130.668 46.8005C130.615 47.6675 130.317 48.6568 129.541 49.1435C128.737 49.5425 127.815 49.1914 127.123 48.7286C125.618 47.6834 124.4 46.0106 124.378 44.1223C124.346 43.0664 124.969 42.0026 125.966 41.6063ZM133.357 42.6169C134.15 42.2739 135.073 42.5425 135.74 43.0398C136.716 43.7712 137.37 44.8377 137.953 45.8882C138.466 46.8563 138.86 48.0132 138.53 49.1036C138.309 49.843 137.413 49.9946 136.753 49.8989C135.333 49.7286 133.634 49.3643 132.966 47.9361C132.573 46.8084 132.485 45.5904 132.498 44.4042C132.514 43.7366 132.695 42.9334 133.357 42.6169ZM117.575 46.2313C118.275 46.0744 119.251 46.3696 119.615 47.0265C119.432 48.6036 117.235 47.3324 117.575 46.2313ZM120.908 46.9228C123.243 46.1515 125.761 47.9095 126.602 50.0638C127.03 51.0717 126.977 52.6063 125.828 53.101C124.631 53.4999 123.339 53.1914 122.163 52.8483C120.924 52.468 119.69 51.5717 119.41 50.2393C119.187 48.9893 119.599 47.3989 120.908 46.9228ZM129.708 50.4255C131.908 50.0691 134.043 51.1036 135.9 52.1781C137.61 53.2473 139.53 54.6967 139.695 56.8802C139.86 58.9707 137.69 60.718 135.682 60.2659C134.979 60.1914 134.158 59.8457 133.522 60.3058C132.788 61.0185 132.642 62.2473 131.652 62.7127C130.075 63.6329 127.825 62.9919 126.993 61.3669C126.346 60.0691 126.49 58.5638 126.66 57.1728C126.91 55.6622 127.094 54.1223 127.573 52.6622C127.905 51.6568 128.599 50.6329 129.708 50.4255ZM119.865 53.6063C121.541 53.1994 123.378 53.609 124.862 54.4441C126.275 55.1994 126.163 57.4866 124.767 58.1941C123.344 58.8829 121.615 59.1302 120.094 58.6329C118.745 58.2074 117.929 56.6728 118.221 55.3111C118.397 54.4919 119.075 53.843 119.865 53.6063ZM115.777 55.6143C116.389 55.234 117.772 55.0744 117.729 56.1276C117.479 57.0744 115.878 56.351 115.777 55.6143Z" fill="black"/>
<path d="M24 42.2422C57.4388 42.2343 90.8803 42.2635 124.319 42.2289C124.024 42.5561 123.888 42.9736 123.75 43.3859C90.8777 43.4018 58.0053 43.3832 25.133 43.3938C25.141 48.6412 25.1064 53.8912 25.1516 59.1358C56.5904 59.1252 88.0266 59.1332 119.465 59.1332C120.08 59.314 120.689 59.5561 121.343 59.5534C122.872 59.6917 124.295 58.9364 125.824 59.1252C125.856 59.5082 125.907 59.8885 125.955 60.2688C91.9681 60.2901 57.984 60.2795 24 60.2741V42.2422ZM129.971 42.338C130.702 42.1332 131.481 42.2874 132.234 42.2449L132.553 42.3486C131.426 43.7609 131.84 45.7156 132.101 47.3539C132.314 48.9045 133.723 49.9869 135.184 50.2901C136.271 50.5215 137.543 50.8672 138.54 50.1811C139.646 49.3034 139.404 47.6624 138.96 46.4949C138.269 44.8991 137.33 43.3061 135.848 42.3327C136.505 42.2023 137.176 42.2476 137.84 42.2422C153.085 42.2422 168.33 42.2476 183.574 42.2396V60.2795C169.035 60.2821 154.495 60.2768 139.952 60.2795L139.354 60.322C139.285 60.221 139.144 60.0188 139.074 59.9178C139.705 59.3672 140.133 58.6066 140.287 57.7795C143.447 57.8433 146.641 58.08 149.779 57.5507C151.559 57.2582 152.795 55.4816 152.726 53.7263C152.761 51.9417 152.806 50.1518 152.681 48.3699C152.577 46.7954 151.34 45.3486 149.769 45.0906C146.577 44.5747 143.327 44.7555 140.112 44.9098C140.106 48.4444 140.101 51.9816 140.117 55.5162C139.399 53.9763 138.112 52.8007 136.697 51.9018C134.678 50.6332 132.37 49.5241 129.926 49.6784C130.88 49.0614 131.287 47.8672 131.34 46.7795C131.348 45.213 130.987 43.5667 129.971 42.338ZM157.912 44.8832C156.258 45.2183 154.42 46.2715 154.152 48.0906C153.923 49.7741 154.045 51.4816 154.032 53.1757C154.021 54.4151 154.277 55.83 155.37 56.588C157.298 58.2023 159.973 57.9577 162.316 57.8539C164.189 57.6651 166.38 56.5986 166.713 54.5587C166.939 52.9577 166.83 51.3327 166.84 49.7236C166.846 48.4497 166.699 46.9736 165.606 46.1412C163.489 44.3353 160.481 44.6385 157.912 44.8832ZM169.162 46.2263C168.231 47.1305 168.104 48.4976 168.117 49.7263C168.146 51.2422 168.045 52.7662 168.191 54.2795C168.356 56.1305 170.019 57.6332 171.838 57.8087C173.609 57.9683 175.402 57.963 177.176 57.8167C178.673 57.6784 180.04 56.6757 180.63 55.2981C181.154 53.6811 180.875 51.9444 180.944 50.2741C178.702 50.2715 176.46 50.2715 174.221 50.2741C174.215 51.1598 174.213 52.0428 174.221 52.9284C175.16 52.939 176.101 52.9204 177.04 52.9364C177.104 53.9311 176.386 54.9018 175.356 54.9497C174.394 54.9364 173.242 55.1651 172.497 54.3885C171.801 53.5215 172.08 52.3353 172.021 51.3114C172.08 50.2954 171.801 49.1119 172.503 48.2529C173.168 47.5374 174.205 47.6837 175.085 47.6784C175.936 47.6438 176.763 48.197 176.971 49.0428C178.285 49.0401 179.601 49.0428 180.915 49.0401C181.029 47.0374 179.452 45.1731 177.489 44.8752C175.894 44.6412 174.271 44.7236 172.665 44.7555C171.372 44.7795 170.003 45.1864 169.162 46.2263Z" fill="black"/>
<path d="M27.0454 44.7393C29.1066 44.7367 31.1704 44.7314 33.2316 44.742C34.4124 47.4574 35.5268 50.2021 36.7395 52.9042C36.7289 50.1808 36.7262 47.4601 36.7422 44.7367C38.0773 44.734 39.4124 44.7393 40.7475 44.734C40.7661 49.0824 40.7528 53.4335 40.7528 57.7846C38.6943 57.7872 36.6358 57.7872 34.5773 57.7819C33.4204 55.109 32.2901 52.4229 31.1438 49.7447L31.0534 49.7899C31.08 52.4548 31.0614 55.1197 31.0614 57.7846C29.7262 57.7899 28.3885 57.7819 27.0534 57.7872C27.0268 53.4388 27.0454 49.0878 27.0454 44.7393ZM45.3619 44.742C47.3752 44.7287 49.3911 44.7367 51.4044 44.7393C52.697 49.0824 53.9656 53.4335 55.2422 57.7819C53.8991 57.7846 52.556 57.7925 51.2156 57.7792C50.9869 57.0798 50.8406 56.3511 50.5667 55.6729C49.1039 55.6808 47.6411 55.6675 46.1757 55.6782C45.9603 56.3776 45.7715 57.0824 45.5534 57.7819C44.213 57.7899 42.8725 57.7872 41.5321 57.7819C42.8034 53.4335 44.0826 49.0878 45.3619 44.742ZM48.3619 48.1516C47.9762 49.6489 47.4975 51.1223 47.0773 52.6143C47.9497 52.6143 48.8247 52.6223 49.697 52.609C49.2475 51.125 48.8512 49.6223 48.3619 48.1516ZM55.3911 44.734C56.7289 44.7393 58.064 44.7314 59.4018 44.7367C59.431 47.7128 59.3645 50.6915 59.4364 53.6675C59.4364 54.3643 59.9576 54.9893 60.6677 55.0319C61.4071 55.0399 62.213 55.1862 62.9018 54.8431C63.5028 54.5399 63.5614 53.7952 63.572 53.1995C63.6012 50.3803 63.5427 47.5532 63.6012 44.7367C64.9337 44.7367 66.2661 44.7314 67.5986 44.7393C67.5826 47.9069 67.6518 51.0771 67.5507 54.2447C67.5374 55.6436 66.7289 56.9947 65.4869 57.6436C63.9895 58.3191 62.3034 58.0665 60.7103 58.1197C59.2449 58.1356 57.5215 58.0824 56.4975 56.8643C55.6544 56.0558 55.4044 54.8537 55.4044 53.7261C55.3645 50.7287 55.3832 47.7314 55.3911 44.734ZM69.0135 47.383C69.5986 45.9096 71.056 44.8537 72.6385 44.734C74.4975 44.609 76.3832 44.5505 78.2342 44.8032C80.2608 45.1197 81.8273 47.0691 81.6917 49.1223C80.322 49.1303 78.9523 49.1223 77.5826 49.1276C77.4124 48.3245 76.6677 47.742 75.8486 47.7633C75.0002 47.7819 74.0188 47.6064 73.33 48.234C72.5507 49.0638 72.8459 50.2925 72.7874 51.3191C72.8433 52.3005 72.5879 53.4122 73.205 54.2659C73.9204 55.0957 75.1411 54.8856 76.1172 54.859C77.0348 54.7739 77.6598 53.9149 77.6518 53.0266C76.7156 53.0026 75.7794 53.0186 74.8433 53.0186C74.814 52.0771 74.8353 51.133 74.8326 50.1915C77.1252 50.1862 79.4177 50.1862 81.7103 50.1915C81.6917 51.5532 81.7715 52.9229 81.6411 54.2846C81.4895 56.1383 79.8433 57.6622 78.0294 57.875C76.2369 58.0638 74.4231 58.0346 72.6278 57.9042C71.0481 57.7846 69.5986 56.7287 69.0108 55.2606C68.6066 53.9867 68.7449 52.6303 68.7129 51.3165C68.7475 50.0053 68.6066 48.6516 69.0135 47.383ZM90.8592 44.8564C92.1757 44.8537 93.4922 44.8457 94.8087 44.859C94.8114 49.1223 94.814 53.3856 94.8087 57.6489C93.4922 57.6542 92.1731 57.6569 90.8566 57.6489C90.8486 56.1622 90.8592 54.6729 90.8539 53.1835C89.4922 53.1782 88.1305 53.1808 86.7688 53.1835C86.7608 54.6729 86.7741 56.1622 86.7635 57.6516C85.4523 57.6516 84.1411 57.6569 82.83 57.6516C82.822 53.3856 82.8273 49.1223 82.8273 44.8564C84.1385 44.8484 85.4497 44.8537 86.7635 44.8537C86.7768 46.6276 86.7502 48.4016 86.7768 50.1755C88.1358 50.1463 89.5055 50.2154 90.8619 50.1409C90.8459 48.3803 90.8539 46.617 90.8592 44.8564ZM95.9018 47.8484C95.9257 46.8484 95.8778 45.8457 95.9257 44.8484C99.5215 44.859 103.115 44.8457 106.71 44.8537C106.716 45.8564 106.713 46.859 106.71 47.859C105.569 47.867 104.431 47.8564 103.29 47.8643C103.285 51.133 103.293 54.3989 103.285 57.6675C101.968 57.6729 100.652 57.6729 99.3353 57.6675C99.3273 54.3989 99.3379 51.133 99.33 47.8643C98.1864 47.8484 97.0427 47.883 95.9018 47.8484ZM107.623 44.8537C108.936 44.8511 110.253 44.8511 111.569 44.8537C112.306 46.3032 113.056 47.7447 113.761 49.2101C114.636 47.8351 115.242 46.2766 116.053 44.8537C117.365 44.8511 118.678 44.8511 119.992 44.8537C119.811 45.2181 119.625 45.5745 119.444 45.9362C118.825 45.6729 118.128 45.3324 117.447 45.5691C116.968 45.7314 116.782 46.3165 116.907 46.7713C117.069 47.4734 117.646 47.9707 118.237 48.3298C117.415 49.9495 116.596 51.5665 115.779 53.1862C115.756 53.7287 115.785 54.2739 115.769 54.8165C115.051 55.1223 114.896 56.0931 115.553 56.5612C115.955 56.7846 115.71 57.3032 115.769 57.6675C114.458 57.6702 113.146 57.6729 111.835 57.6675C111.825 56.1729 111.841 54.6782 111.827 53.1862C110.434 50.4042 109.016 47.6356 107.623 44.8537ZM143.91 47.6622C145.226 47.7154 146.596 47.5425 147.878 47.9229C149.176 48.484 148.926 50.1542 148.984 51.3032C148.928 52.4628 149.176 54.1542 147.873 54.7207C146.601 55.0957 145.242 54.9282 143.934 54.9761C143.857 52.5532 143.904 50.0957 143.91 47.6622ZM159.117 47.8697C160.229 47.7553 161.734 47.4388 162.537 48.4388C163.133 49.6596 162.785 51.0798 162.878 52.3883C162.96 53.3723 162.681 54.6915 161.506 54.8351C160.498 54.8856 159.285 55.1117 158.46 54.383C157.705 53.3404 158.088 51.9681 157.992 50.7766C157.971 49.7447 157.881 48.2367 159.117 47.8697Z" fill="black"/>
</g>
<defs>
<clipPath id="clip0_186_274">
<rect width="159.574" height="25" fill="white" transform="translate(24 39)"/>
</clipPath>
</defs>
</svg>
